<?xml version="1.0" encoding="UTF-8"?>
<svg xmlns="http://www.w3.org/2000/svg" viewBox="0 0 690.89 454.11">
   <defs>
      <style>
        .cls-1{
            fill:#ddc59b;
        }
        .cls-1,.cls-10,.cls-11,.cls-12,.cls-13,.cls-14,.cls-15,.cls-16,.cls-17,.cls-18,.cls-19,.cls-2,.cls-20,.cls-21,.cls-22,.cls-23,.cls-3,.cls-4,.cls-5,.cls-6,.cls-7,.cls-8,.cls-9{
            stroke:#6d6e6e;
            stroke-linejoin:round;
        }
        .cls-1,.cls-10,.cls-11,.cls-12,.cls-13,.cls-2,.cls-3,.cls-4,.cls-5,.cls-6,.cls-7,.cls-8,.cls-9{
            stroke-width:1.19px;
        }
        .cls-2{
            fill:#af4f31;
        }
        .cls-3{
            fill:#cd674b;
        }
        .cls-4{
            fill:#893e29;
        }
        .cls-22,.cls-5{
            fill:#cca967;
        }
        .cls-6{
            fill:#9a452c;
        }
        .cls-7{
            fill:#c47356;
        }
        .cls-8{
            fill:#d09380;
        }
        .cls-14,.cls-17,.cls-9{
            fill:#cc9545;
        }
        .cls-10{
            fill:#a17537;
        }
        .cls-11{
            fill:#b3833f;
        }
        .cls-12,.cls-15,.cls-18{
            fill:#99733d;
        }
        .cls-13,.cls-16,.cls-19{
            fill:#b2864c;
        }
        .cls-14,.cls-15,.cls-16{
            stroke-width:1.14px;
        }
        .cls-17,.cls-18,.cls-19,.cls-20,.cls-21,.cls-22,.cls-23{
            stroke-width:1.02px;
        }
        .cls-20{
            fill:#b0854c;
        }
        .cls-21{
            fill:#906c3b;
        }
        .cls-23{
            fill:none;
        }
      </style>
   </defs>
   <g id="Outerview">
      <polygon class="cls-1" points="459.86 90.6 459.86 182.08 424.59 170.4 314.36 230.8 273.36 281.95 274.68 176.13 459.86 90.6" />
      <polygon class="cls-2" points="459.86 90.6 374.32 119.7 207.66 62.82 201.93 0.21 459.86 90.6" />
      <polygon class="cls-3" points="0 83.98 201.93 0.21 207.66 62.82 56.44 128.07 0 83.98" />
      <polygon class="cls-4" points="459.86 90.6 274.68 176.13 210.31 192 374.32 119.7 459.86 90.6" />
      <polygon class="cls-1" points="56.44 128.07 207.66 62.82 207.66 97.21 56.44 168.2 56.44 128.07" />
      <polygon class="cls-5" points="207.66 62.82 374.32 119.7 331.18 138.72 207.66 97.21 207.66 62.82" />
      <polygon class="cls-2" points="207.66 97.21 210.31 138.72 280.29 161.15 331.18 138.72 207.66 97.21" />
      <polygon class="cls-3" points="56.44 168.2 207.66 97.21 210.31 138.72 133.37 177.01 56.44 168.2" />
      <polygon class="cls-5" points="0 83.98 0 236.53 491.6 440.67 491.6 367.04 273.36 281.95 274.68 176.13 210.31 192 210.31 224.19 56.44 168.2 56.44 128.07 0 83.98" />
      <polygon class="cls-6" points="56.44 168.2 133.37 177.01 210.31 202.59 210.31 224.19 56.44 168.2" />
      <polygon class="cls-3" points="314.36 230.8 424.59 170.4 427.23 217.14 392.84 236.98 314.36 230.8" />
      <polygon class="cls-2" points="424.59 170.4 563.03 216.25 481.9 236.43 427.23 217.14 424.59 170.4" />
      <polygon class="cls-4" points="563.03 216.25 446.41 278.64 446.41 255.49 481.9 236.43 563.03 216.25" />
      <polygon class="cls-6" points="446.41 278.64 314.36 230.8 392.84 236.98 446.41 255.49 446.41 278.64" />
      <polygon class="cls-2" points="273.36 281.95 314.36 230.8 446.41 278.64 491.6 367.04 273.36 281.95" />
      <polygon class="cls-3" points="446.41 278.64 491.6 367.04 690.89 258.43 563.03 216.25 446.41 278.64" />
      <polygon class="cls-1" points="491.6 440.67 690.89 318.54 690.89 258.43 491.6 367.04 491.6 440.67" />
      <polygon class="cls-7" points="0 236.53 0 247.45 491.6 453.9 491.6 440.67 0 236.53" />
      <polygon class="cls-8" points="491.6 440.67 491.6 453.9 582.87 398.79 602.49 409.15 602.49 399.67 595.21 395.7 595.21 388.64 583.99 384.05 491.6 440.67" />
      <polygon class="cls-8" points="602.49 409.15 627.4 392.83 627.4 385.12 602.49 399.67 602.49 409.15" />
      <polygon class="cls-8" points="627.4 385.12 620.57 381.37 595.21 395.7 602.49 399.67 627.4 385.12" />
      <polygon class="cls-8" points="620.57 381.37 620.57 373.65 595.21 388.64 595.21 395.7 620.57 381.37" />
      <polygon class="cls-8" points="620.57 373.65 609.04 368.7 583.99 384.05 595.21 388.64 620.57 373.65" />
      <polygon class="cls-8" points="690.89 318.54 690.89 333.83 620.57 377.33 620.57 373.65 609.04 368.7 690.89 318.54" />
      <polygon class="cls-9" points="506.3 377.33 506.3 431.67 534.28 414.52 534.28 361.16 506.3 377.33" />
      <polygon class="cls-10" points="534.28 414.52 527.9 412.6 506.3 425.68 506.3 431.67 534.28 414.52" />
      <polygon class="cls-11" points="527.9 412.6 527.9 364.85 534.28 361.16 534.28 414.52 527.9 412.6" />
      <polygon class="cls-9" points="545.39 355.58 545.39 407.71 572.02 391.39 572.02 339.56 545.39 355.58" />
      <polygon class="cls-10" points="545.39 401.87 565.67 389.53 572.02 391.39 545.39 407.71 545.39 401.87" />
      <polygon class="cls-11" points="565.67 389.53 565.67 343.38 572.02 339.56 572.02 391.39 565.67 389.53" />
      <polygon class="cls-9" points="582.25 385.12 582.25 334.12 607.89 318.54 607.89 369.41 582.25 385.12" />
      <polygon class="cls-9" points="607.89 369.41 582.25 357.19 582.25 385.12 607.89 369.41" />
      <polygon class="cls-11" points="602.28 366.73 602.28 321.95 607.89 318.54 607.89 369.41 602.28 366.73" />
      <polygon class="cls-9" points="620.57 361.64 620.57 312.37 644.3 297.97 644.3 346.66 620.57 361.64" />
      <polygon class="cls-10" points="620.57 355.43 639.01 343.98 644.3 346.66 620.57 361.64 620.57 355.43" />
      <polygon class="cls-11" points="639.01 343.98 639.01 301.18 644.3 297.97 644.3 346.66 639.01 343.98" />
      <polygon class="cls-9" points="656.6 339.56 656.6 291.65 681.04 276.66 681.04 324.58 656.6 339.56" />
      <polygon class="cls-10" points="656.6 333.97 674.87 322.31 681.04 324.58 656.6 339.56 656.6 333.97" />
      <polygon class="cls-11" points="674.87 322.31 674.87 280.44 681.04 276.66 681.04 324.58 674.87 322.31" />
      <polygon class="cls-9" points="85.86 123.56 103.83 115.07 103.83 139.65 86.75 147.69 85.86 123.56" />
      <polygon class="cls-12" points="86.55 142.29 99.31 135.9 103.83 139.65 86.75 147.69 86.55 142.29" />
      <polygon class="cls-13" points="99.31 135.9 99.31 117.2 103.83 115.07 103.83 139.65 99.31 135.9" />
      <polygon class="cls-14" points="135.69 101.25 153.66 93.48 153.66 115.97 136.57 123.33 135.69 101.25" />
      <polygon class="cls-15" points="136.37 118.39 149.14 112.54 153.66 115.97 136.57 123.33 136.37 118.39" />
      <polygon class="cls-16" points="149.14 112.54 149.14 95.43 153.66 93.48 153.66 115.97 149.14 112.54" />
      <polygon class="cls-17" points="182.86 80.68 198.66 73.61 198.66 94.07 183.64 100.77 182.86 80.68" />
      <polygon class="cls-18" points="183.47 96.27 194.69 90.95 198.66 94.07 183.64 100.77 183.47 96.27" />
      <polygon class="cls-19" points="194.69 90.95 194.69 75.39 198.66 73.61 198.66 94.07 194.69 90.95" />
      <polygon class="cls-17" points="218.69 74.39 235.88 80.68 235.88 98.86 218.69 94.07 218.69 74.39" />
      <polygon class="cls-20" points="218.69 94.07 223.43 90.95 235.88 94.07 235.88 98.86 218.69 94.07" />
      <polygon class="cls-21" points="223.43 90.95 223.43 76.13 218.69 74.39 218.69 94.07 223.43 90.95" />
      <polygon class="cls-17" points="276.77 94.07 294.3 100.3 294.3 120.14 277.21 114.08 276.77 94.07" />
      <polygon class="cls-20" points="277.21 114.08 282.95 111.1 294.3 115.07 294.3 120.14 277.21 114.08" />
      <polygon class="cls-21" points="277.21 114.08 282.95 111.1 282.95 96.26 276.77 94.07 277.21 114.08" />
      <polygon class="cls-17" points="338.39 114.96 355.03 120.58 355.03 128.2 338.39 135.54 338.39 114.96" />
      <polygon class="cls-21" points="338.39 114.96 342.55 116.36 342.55 133.7 338.39 135.54 338.39 114.96" />
      <polygon class="cls-17" points="144.88 171.29 144.88 180.84 133.37 177.01 144.88 171.29" />
      <polygon class="cls-22" points="144.88 171.29 152.17 167.66 152.17 183.26 144.88 180.84 144.88 171.29" />
      <polygon class="cls-17" points="152.17 167.66 160.14 163.69 160.14 185.91 152.17 183.26 152.17 167.66" />
      <polygon class="cls-22" points="160.14 163.69 168.08 159.74 168.08 188.5 160.14 185.91 160.14 163.69" />
      <polygon class="cls-17" points="168.08 159.74 177.92 154.84 177.92 191.82 168.08 188.5 168.08 159.74" />
      <polygon class="cls-22" points="177.92 154.84 185.66 150.98 185.66 194.4 177.92 191.82 177.92 154.84" />
      <polygon class="cls-17" points="185.66 150.98 195.65 146.01 195.65 197.72 185.66 194.4 185.66 150.98" />
      <polygon class="cls-22" points="195.65 146.01 201.8 142.95 201.8 199.75 195.65 197.72 195.65 146.01" />
      <polygon class="cls-17" points="201.8 142.95 207.66 140.03 207.66 201.71 201.8 199.75 201.8 142.95" />
      <polygon class="cls-22" points="207.66 140.03 210.31 138.72 213.72 139.81 213.72 190.49 210.31 192 210.31 202.81 207.66 201.71 207.66 140.03" />
      <polygon class="cls-17" points="213.72 139.81 223.52 142.95 223.52 186.18 213.72 190.49 213.72 139.81" />
      <polygon class="cls-22" points="223.52 142.95 230.38 145.15 230.38 183.15 223.52 186.18 223.52 142.95" />
      <polygon class="cls-17" points="230.38 145.15 239.59 148.1 239.59 179.1 230.38 183.15 230.38 145.15" />
      <polygon class="cls-22" points="239.59 148.1 247.78 150.73 247.78 175.49 239.59 179.1 239.59 148.1" />
      <polygon class="cls-17" points="247.78 150.73 255.33 153.15 255.33 172.16 247.78 175.49 247.78 150.73" />
      <polygon class="cls-22" points="255.33 153.15 263.49 155.76 263.49 168.56 255.33 172.16 255.33 153.15" />
      <polygon class="cls-17" points="263.49 155.76 271.41 158.31 271.41 165.07 263.49 168.56 263.49 155.76" />
      <polygon class="cls-22" points="271.41 158.31 280.29 161.15 271.41 165.07 271.41 158.31" />
      <polygon class="cls-17" points="398.1 233.94 398.1 238.79 392.84 236.98 398.1 233.94" />
      <polygon class="cls-22" points="398.1 233.94 404.16 230.45 404.16 240.89 398.1 238.79 398.1 233.94" />
      <polygon class="cls-17" points="404.16 230.45 410.4 226.84 410.4 243.05 404.16 240.89 404.16 230.45" />
      <polygon class="cls-22" points="410.4 226.84 417.35 222.84 417.35 245.45 410.4 243.05 410.4 226.84" />
      <polygon class="cls-17" points="417.35 222.84 424.02 218.99 424.02 247.75 417.35 245.45 417.35 222.84" />
      <polygon class="cls-22" points="424.02 218.99 427.23 217.14 431.96 218.81 431.96 250.5 424.02 247.75 424.02 218.99" />
      <polygon class="cls-17" points="431.96 218.81 439.94 221.62 439.94 253.26 431.96 250.5 431.96 218.81" />
      <polygon class="cls-22" points="439.94 221.62 447.76 224.38 447.76 254.72 446.41 255.49 439.94 253.26 439.94 221.62" />
      <polygon class="cls-17" points="447.76 224.38 455.78 227.21 455.78 250.46 447.76 254.72 447.76 224.38" />
      <polygon class="cls-22" points="455.78 227.21 463.36 229.88 463.36 246.39 455.78 250.46 455.78 227.21" />
      <polygon class="cls-17" points="463.36 229.88 470.53 232.41 470.53 242.44 463.36 246.39 463.36 229.88" />
      <polygon class="cls-22" points="470.53 232.41 478.39 235.18 478.39 238.31 470.53 242.44 470.53 232.41" />
      <polygon class="cls-23" points="478.39 235.18 481.9 236.43 478.39 238.31 478.39 235.18" />
   </g>
</svg>